<svg width="184" height="180" viewBox="0 0 184 180" fill="none" xmlns="http://www.w3.org/2000/svg">
<g clip-path="url(#clip0_240_1479)">
<path d="M176.224 91.8881C176.224 93.9737 177.914 95.6643 180 95.6643C182.086 95.6643 183.776 93.9737 183.776 91.8881H176.224ZM164.943 49.723C172.117 62.1238 176.224 76.5206 176.224 91.8881H183.776C183.776 75.1576 179.301 59.4607 171.481 45.9413L164.943 49.723Z" fill="#713FFD"/>
<path d="M168.212 47.8322C160.474 34.4555 149.321 23.302 135.944 15.564" stroke="#865CFD" stroke-opacity="0.85" stroke-width="6"/>
<path d="M91.8882 3.77625C107.937 3.77625 122.984 8.06704 135.944 15.5641" stroke="#9874FF" stroke-opacity="0.83" stroke-width="6"/>
<path d="M91.888 3.77625C75.7864 3.77625 60.6934 8.09528 47.7045 15.638" stroke="#AC8EFF" stroke-opacity="0.78" stroke-width="6"/>
<path d="M15.5638 47.8321C23.2773 34.498 34.3845 23.3729 47.7044 15.6379" stroke="#CDBBFF" stroke-opacity="0.63" stroke-width="6"/>
<path d="M0 91.8881C0 93.9737 1.69068 95.6643 3.77622 95.6643C5.86177 95.6643 7.55245 93.9737 7.55245 91.8881H0ZM7.55245 91.8881C7.55245 76.5206 11.6593 62.1238 18.8328 49.723L12.2953 45.9413C4.47477 59.4607 0 75.1576 0 91.8881H7.55245Z" fill="white" fill-opacity="0.24"/>
</g>
<circle cx="129" cy="11" r="7.5" fill="#FDFDFD" stroke="#EFEDED"/>
<g filter="url(#filter0_d_240_1479)">
<path d="M77.7604 56.1889C80.3985 56.2092 82.1325 54.131 82.1325 51.6548C82.1325 49.0572 80.2164 47.1545 77.9156 47.1545C76.4312 47.1545 75.1222 47.9506 74.4678 49.1719H74.3801C74.3868 45.3125 75.6823 43.1264 77.9493 43.1264C79.5281 43.1264 80.4862 44.179 80.7426 45.6364H81.9841C81.7142 43.484 80.1826 41.9929 77.9493 41.9929C74.7714 41.9929 73.1926 45.1708 73.1926 49.6644C73.1926 54.5224 75.4664 56.1687 77.7604 56.1889ZM77.7604 55.0554C76.0399 55.0554 74.7646 53.6452 74.6162 51.7358C74.4813 49.9141 75.9184 48.288 77.7604 48.288C79.5551 48.288 80.9113 49.7859 80.9113 51.6548C80.9113 53.5373 79.5551 55.0554 77.7604 55.0554ZM89.5207 41.5341H88.3939L83.9408 58.0781H85.0676L89.5207 41.5341ZM95.8192 42.1818H94.5035L91.2378 44.3477V45.6566L94.4765 43.5043H94.5574V56H95.8192V42.1818ZM104.307 56.1889C107.215 56.1889 108.922 53.5643 108.922 49.0909C108.922 44.6378 107.202 41.9929 104.307 41.9929C101.413 41.9929 99.692 44.6378 99.692 49.0909C99.692 53.5643 101.399 56.1889 104.307 56.1889ZM104.307 55.0554C102.182 55.0554 100.913 52.8761 100.913 49.0909C100.913 45.3125 102.188 43.1062 104.307 43.1062C106.426 43.1062 107.701 45.3125 107.701 49.0909C107.701 52.8761 106.432 55.0554 104.307 55.0554ZM69.4385 90H70.8994V82.6484H79.9775V90H81.4385V74H79.9775V81.3359H70.8994V74H69.4385V90ZM85.4072 90H86.8057V78H85.4072V90ZM86.1182 75.9375C86.6885 75.9375 87.165 75.4844 87.165 74.9375C87.165 74.3906 86.6885 73.9375 86.1182 73.9375C85.5479 73.9375 85.0791 74.3906 85.0791 74.9375C85.0791 75.4844 85.5479 75.9375 86.1182 75.9375ZM95.0615 94.75C97.9053 94.75 100.015 93.3594 100.015 90.3125V78H98.6553V80.2891H98.5146C98.0225 79.2109 97.0303 77.8359 94.8271 77.8359C91.8584 77.8359 89.8662 80.3203 89.8662 83.9687C89.8662 87.6484 91.9287 89.875 94.8037 89.875C96.96 89.875 98.0146 88.625 98.4912 87.5234H98.6162V90.2266C98.6162 92.4609 97.1865 93.5 95.0615 93.5C93.0068 93.5 92.0225 92.5078 91.5146 91.5938L90.374 92.3438C91.0771 93.7188 92.6084 94.75 95.0615 94.75ZM94.9678 88.6016C92.585 88.6016 91.2646 86.6953 91.2646 83.9453C91.2646 81.2422 92.5615 79.1016 94.9678 79.1016C97.3193 79.1016 98.6396 81.1328 98.6396 83.9453C98.6396 86.8438 97.2803 88.6016 94.9678 88.6016ZM105.087 82.5C105.087 80.4062 106.493 79.1172 108.415 79.1172C110.274 79.1172 111.462 80.3359 111.462 82.3125V90H112.86V82.2266C112.86 79.3672 111.204 77.8438 108.767 77.8438C106.954 77.8438 105.774 78.6406 105.212 79.8828H105.087V74H103.696V90H105.087V82.5Z" fill="white"/>
</g>
<defs>
<filter id="filter0_d_240_1479" x="67.1785" y="41.5341" width="45.6819" height="56.2259" filterUnits="userSpaceOnUse" color-interpolation-filters="sRGB">
<feFlood flood-opacity="0" result="BackgroundImageFix"/>
<feColorMatrix in="SourceAlpha" type="matrix" values="0 0 0 0 0 0 0 0 0 0 0 0 0 0 0 0 0 0 127 0" result="hardAlpha"/>
<feOffset dx="-1.51" dy="2.26"/>
<feGaussianBlur stdDeviation="0.375"/>
<feColorMatrix type="matrix" values="0 0 0 0 0 0 0 0 0 0 0 0 0 0 0 0 0 0 0.1 0"/>
<feBlend mode="normal" in2="BackgroundImageFix" result="effect1_dropShadow_240_1479"/>
<feBlend mode="normal" in="SourceGraphic" in2="effect1_dropShadow_240_1479" result="shape"/>
</filter>
<clipPath id="clip0_240_1479">
<rect width="183.776" height="180" fill="white"/>
</clipPath>
</defs>
</svg>
